<svg width="10" height="6" viewBox="0 0 10 6" fill="none" xmlns="http://www.w3.org/2000/svg">
<path d="M9.45857 0.866072C9.5181 0.925596 9.54786 0.994049 9.54786 1.07143C9.54786 1.14881 9.5181 1.21726 9.45857 1.27679L5.29786 5.4375C5.23834 5.49702 5.16988 5.52679 5.0925 5.52679C5.01512 5.52679 4.94667 5.49702 4.88715 5.4375L0.726432 1.27679C0.666908 1.21726 0.637146 1.14881 0.637146 1.07143C0.637146 0.994049 0.666908 0.925596 0.726432 0.866072L1.17286 0.419644C1.23238 0.36012 1.30084 0.330358 1.37822 0.330358C1.4556 0.330358 1.52405 0.36012 1.58357 0.419644L5.0925 3.92857L8.60143 0.419644C8.66096 0.36012 8.72941 0.330358 8.80679 0.330358C8.88417 0.330358 8.95262 0.36012 9.01215 0.419644L9.45857 0.866072Z" fill="#2E2E2E"/>
</svg>
