<svg width="14" height="13" viewBox="0 0 14 13" fill="none" xmlns="http://www.w3.org/2000/svg">
<path d="M6.66006 0.717529C10.2401 0.717529 13.1601 3.10425 13.1601 5.99878C13.1601 8.9187 10.2401 11.28 6.66006 11.28C5.66982 11.28 4.75576 11.1023 3.91787 10.7976C3.3085 11.3054 2.03896 12.0925 0.363183 12.0925C0.261621 12.0925 0.21084 12.0671 0.160058 11.991C0.134668 11.9148 0.160058 11.8132 0.21084 11.7625C0.21084 11.7371 1.27725 10.6199 1.60732 9.32495C0.693262 8.41089 0.160058 7.26831 0.160058 5.99878C0.160058 3.10425 3.05459 0.717529 6.66006 0.717529ZM3.41006 6.81128C3.8417 6.81128 4.22256 6.45581 4.22256 5.99878C4.22256 5.56714 3.8417 5.18628 3.41006 5.18628C2.95303 5.18628 2.59756 5.56714 2.59756 5.99878C2.59756 6.45581 2.95303 6.81128 3.41006 6.81128ZM6.66006 6.81128C7.0917 6.81128 7.47256 6.45581 7.47256 5.99878C7.47256 5.56714 7.0917 5.18628 6.66006 5.18628C6.20303 5.18628 5.84756 5.56714 5.84756 5.99878C5.84756 6.45581 6.20303 6.81128 6.66006 6.81128ZM9.91006 6.81128C10.3417 6.81128 10.7226 6.45581 10.7226 5.99878C10.7226 5.56714 10.3417 5.18628 9.91006 5.18628C9.45303 5.18628 9.09756 5.56714 9.09756 5.99878C9.09756 6.45581 9.45303 6.81128 9.91006 6.81128Z" fill="#484848"/>
</svg>
