<svg width="15" height="14" viewBox="0 0 15 14" fill="none" xmlns="http://www.w3.org/2000/svg">
<path d="M14.6601 3.96753V11.8425C14.6601 12.5808 14.0585 13.155 13.3476 13.155H1.97256C1.23428 13.155 0.660058 12.5808 0.660058 11.8425V3.96753C0.660058 3.25659 1.23428 2.65503 1.97256 2.65503H4.37881L4.70693 1.78003C4.89834 1.2605 5.39053 0.905029 5.9374 0.905029H9.35537C9.90225 0.905029 10.3944 1.2605 10.5858 1.78003L10.9413 2.65503H13.3476C14.0585 2.65503 14.6601 3.25659 14.6601 3.96753ZM10.9413 7.90503C10.9413 6.10034 9.46475 4.62378 7.66006 4.62378C5.82803 4.62378 4.37881 6.10034 4.37881 7.90503C4.37881 9.73706 5.82803 11.1863 7.66006 11.1863C9.46475 11.1863 10.9413 9.73706 10.9413 7.90503ZM10.0663 7.90503C10.0663 9.24487 8.97256 10.3113 7.66006 10.3113C6.32021 10.3113 5.25381 9.24487 5.25381 7.90503C5.25381 6.59253 6.32021 5.49878 7.66006 5.49878C8.97256 5.49878 10.0663 6.59253 10.0663 7.90503Z" fill="#484848"/>
</svg>
