<svg width="15" height="14" viewBox="0 0 15 14" fill="none" xmlns="http://www.w3.org/2000/svg">
<path d="M13.6996 8.21753C13.9535 8.21753 14.1566 8.44604 14.1058 8.67456C13.9281 10.0964 13.2425 11.3406 12.2523 12.2546C12.0999 12.407 11.846 12.407 11.6937 12.2546L7.68197 8.21753H13.6996ZM13.2933 6.59253C13.3187 6.82104 13.1156 6.99878 12.8871 6.99878H7.22494V1.33667C7.22494 1.10815 7.40268 0.905029 7.63119 0.93042C10.6781 1.13354 13.0902 3.54565 13.2933 6.59253ZM6.00619 8.21753L9.94174 12.1785C10.1195 12.3562 10.1195 12.6609 9.91635 12.7878C8.9515 13.4988 7.75814 13.905 6.48861 13.905C3.21322 13.9558 0.420254 11.2898 0.318691 8.03979C0.191738 4.86597 2.50229 2.22534 5.54916 1.7937C5.77768 1.76831 6.00619 1.97144 6.00619 2.19995V8.21753Z" fill="#484848"/>
</svg>
